<svg width="209" height="46" viewBox="0 0 209 46" fill="none" xmlns="http://www.w3.org/2000/svg">
<path fill-rule="evenodd" clip-rule="evenodd" d="M59.0519 38.6873L56.37 44.8269H41.4896L62.5071 0H77.6398L98.6574 44.8269H83.7769L81.095 38.6873H59.0519ZM76.9068 29.0996L70.0735 13.4565L63.2401 29.0996H76.9068ZM0 10.6055H18.4955V44.8354H31.3583V10.6055H49.8537V0.00857039H0V10.6055ZM100.821 0H135.29C138.316 0 140.838 0.420512 143.024 1.34564C145.21 2.27078 146.891 3.61642 148.068 5.38259C149.245 7.06464 149.834 9.08311 149.834 11.438C149.834 13.7088 149.077 15.7272 147.648 17.3252C146.135 19.0073 144.033 20.1006 141.427 20.6893C145.21 20.8575 148.152 21.9509 150.254 24.0534C152.44 26.156 153.533 29.0155 153.533 32.4637C153.533 35.0709 152.86 37.2576 151.515 39.1079C150.17 40.9581 148.236 42.3879 145.63 43.313C143.108 44.3222 140.166 44.8269 136.719 44.8269H100.821V0ZM135.542 34.1458C137.139 34.1458 138.4 33.8094 139.241 33.1366C140.166 32.3796 140.586 31.4545 140.586 30.2771C140.586 29.0155 140.166 28.0904 139.241 27.4175C138.4 26.6606 137.139 26.3242 135.542 26.3242H113.684V34.1458H135.542ZM132.515 16.8206C133.86 16.8206 134.953 16.4842 135.794 15.8955C136.551 15.3067 136.971 14.4657 136.971 13.4565C136.971 12.5313 136.551 11.8585 135.794 11.3539C134.953 10.8493 133.86 10.597 132.515 10.597H113.684V16.8206H132.515ZM168.544 43.3087C172.495 45.159 177.035 46 182.332 46C187.544 46 192.168 45.159 196.035 43.3087C199.902 41.5426 202.929 39.0195 204.947 35.6554C207.048 32.2912 208.057 29.1868 208.057 24.6453V0.00313551H195.194V23.5519C195.194 27.673 194.017 30.8689 191.748 33.2238C189.478 35.4946 186.283 36.672 182.332 36.672C178.296 36.672 175.186 35.4946 172.832 33.2238C170.562 30.8689 169.385 27.673 169.385 23.5519V0.00313551H156.522V24.6453C156.522 29.1868 157.531 32.2912 159.633 35.6554C161.734 39.0195 164.677 41.5426 168.544 43.3087Z" fill="black"/>
</svg>
