<svg width="214" height="1024" viewBox="0 0 214 1024" fill="none" xmlns="http://www.w3.org/2000/svg">
<path d="M173.844 86.8295L173.844 -4L225.885 -4L225.885 240.827L173.844 240.827L173.844 149.997L5.74438 149.997L5.74438 86.8295L173.844 86.8295Z" fill="#D9FF80"/>
<path d="M82.9807 279.44L82.9807 400.821L35.8962 400.821L35.8962 279.44L82.9807 279.44ZM5.74559 480.503L5.7456 407.427L159.803 340.131L5.7456 272.834L5.74561 199.758L225.886 302.973L225.886 377.288L5.74559 480.503Z" fill="#D9FF80"/>
<path d="M225.886 497.398L225.886 666.671C225.886 681.534 223.821 693.92 219.278 704.654C214.735 715.389 208.126 723.646 199.453 729.426C191.192 735.206 181.28 738.096 169.715 738.096C158.564 738.096 148.651 734.38 140.804 727.362C132.543 719.93 127.174 709.609 124.283 696.81C123.457 715.389 118.088 729.839 107.762 740.16C97.4364 750.895 83.3937 756.262 66.4598 756.262C53.6561 756.262 42.9176 752.959 33.8311 746.353C24.7446 739.748 17.7232 730.252 13.18 717.453C8.22373 705.067 5.7456 690.617 5.7456 673.69L5.74561 497.398L225.886 497.398ZM58.1994 667.91C58.1994 675.754 59.8514 681.947 63.1556 686.076C66.8728 690.617 71.4161 692.681 77.1984 692.681C83.3937 692.681 87.9369 690.617 91.2411 686.076C94.9583 681.947 96.6104 675.754 96.6104 667.91L96.6104 560.566L58.1994 560.566L58.1994 667.91ZM143.282 653.047C143.282 659.652 144.934 665.02 147.825 669.148C150.716 672.864 154.846 674.928 159.803 674.928C164.346 674.928 167.65 672.864 170.128 669.148C172.606 665.02 173.845 659.652 173.845 653.047L173.845 560.566L143.282 560.566L143.282 653.047Z" fill="#D9FF80"/>
<path d="M5.54948e-05 897.664C5.66318e-05 871.654 4.13028 849.36 13.2167 829.955C21.8902 810.964 34.2808 796.513 50.8016 786.192C67.3225 775.87 82.5679 770.916 104.871 770.916L225.886 770.916L225.886 834.084L124.595 834.084C104.357 834.084 88.6617 839.864 77.0971 851.011C65.9456 862.571 60.1633 877.847 60.1633 897.664C60.1633 917.069 65.9456 932.758 77.0971 943.905C88.6617 955.052 104.357 960.832 124.595 960.832L225.886 960.832L225.886 1024L104.871 1024C82.5679 1024 67.3225 1019.05 50.8016 1008.72C34.2808 998.815 21.8902 983.952 13.2167 964.961C4.13027 945.969 5.43759e-05 923.262 5.54948e-05 897.664Z" fill="#D9FF80"/>
</svg>
