<svg width="168" height="37" viewBox="0 0 168 37" fill="none" xmlns="http://www.w3.org/2000/svg">
<path fill-rule="evenodd" clip-rule="evenodd" d="M47.4978 31.1181L45.3406 36.0564H33.3715L50.277 0H62.4489L79.3543 36.0564H67.3853L65.2281 31.1181H47.4978ZM61.8593 23.4062L56.3629 10.8237L50.8665 23.4062H61.8593ZM0 8.53072H14.8768V36.0635H25.2229V8.53072H40.0998V0.00707054H0V8.53072ZM81.0946 0H108.82C111.254 0 113.283 0.338238 115.041 1.08237C116.799 1.82649 118.151 2.90886 119.098 4.32947C120.045 5.68243 120.518 7.30598 120.518 9.20013C120.518 11.0266 119.91 12.6502 118.76 13.9355C117.543 15.2884 115.852 16.1679 113.756 16.6414C116.799 16.7767 119.166 17.6561 120.856 19.3473C122.614 21.0385 123.493 23.3386 123.493 26.1121C123.493 28.2092 122.952 29.9681 121.871 31.4563C120.789 32.9446 119.233 34.0946 117.137 34.8387C115.108 35.6505 112.742 36.0564 109.969 36.0564H81.0946V0ZM109.022 27.4651C110.307 27.4651 111.322 27.1945 111.998 26.6533C112.742 26.0445 113.08 25.3004 113.08 24.3533C113.08 23.3386 112.742 22.5944 111.998 22.0532C111.322 21.4444 110.307 21.1738 109.022 21.1738H91.4407V27.4651H109.022ZM106.588 13.5296C107.67 13.5296 108.549 13.259 109.225 12.7855C109.834 12.3119 110.172 11.6355 110.172 10.8237C110.172 10.0796 109.834 9.53837 109.225 9.13248C108.549 8.72659 107.67 8.52365 106.588 8.52365H91.4407V13.5296H106.588ZM135.568 34.8351C138.747 36.3234 142.398 36.9999 146.658 36.9999C150.851 36.9999 154.57 36.3234 157.681 34.8351C160.791 33.4145 163.226 31.3851 164.849 28.6791C166.539 25.9732 167.351 23.4762 167.351 19.8232V0.00235649H157.005V18.9438C157.005 22.2585 156.058 24.8292 154.232 26.7233C152.406 28.5498 149.837 29.4969 146.658 29.4969C143.413 29.4969 140.911 28.5498 139.017 26.7233C137.191 24.8292 136.245 22.2585 136.245 18.9438V0.00235649H125.898V19.8232C125.898 23.4762 126.71 25.9732 128.401 28.6791C130.091 31.3851 132.458 33.4145 135.568 34.8351Z" fill="#BCB2F7"/>
</svg>
