<svg width="360" height="80" viewBox="0 0 360 80" fill="none" xmlns="http://www.w3.org/2000/svg">
<path d="M25.1027 18.9671L-8 18.9671L-8 0.000976562L81.2267 0.000976562V18.9671L48.1241 18.9671L48.1241 80.2309L25.1027 80.2309L25.1027 18.9671Z" fill="#D9FF80"/>
<path d="M95.2993 52.0817L139.537 52.0817V69.2415L95.2993 69.2415L95.2993 52.0817ZM168.577 80.2299H141.944L117.418 24.084L92.8919 80.2299H66.2593L103.876 0L130.96 0L168.577 80.2299Z" fill="#D9FF80"/>
<path d="M174.734 0L236.425 0C241.842 0 246.356 0.752621 250.268 2.4084C254.18 4.06417 257.189 6.47258 259.296 9.6336C261.403 12.6441 262.456 16.2567 262.456 20.4714C262.456 24.5356 261.102 28.1482 258.544 31.0082C255.835 34.0187 252.074 35.9755 247.409 37.0292C254.18 37.3302 259.446 39.2871 263.208 43.0502C267.12 46.8133 269.076 51.9312 269.076 58.1027C269.076 62.769 267.873 66.6826 265.465 69.9942C263.058 73.3057 259.597 75.8646 254.932 77.5204C250.418 79.3267 245.152 80.2299 238.983 80.2299L174.734 80.2299V0ZM236.876 61.1132C239.735 61.1132 241.992 60.5111 243.497 59.3069C245.152 57.9522 245.904 56.2964 245.904 54.189C245.904 51.9312 245.152 50.2754 243.497 49.0712C241.992 47.7165 239.735 47.1144 236.876 47.1144H197.755V61.1132H236.876ZM231.46 30.105C233.867 30.105 235.823 29.5029 237.328 28.4492C238.682 27.3956 239.434 25.8903 239.434 24.084C239.434 22.4282 238.682 21.224 237.328 20.3209C235.823 19.4177 233.867 18.9662 231.46 18.9662L197.755 18.9662V30.105L231.46 30.105Z" fill="#D9FF80"/>
<path d="M320.61 82.3238C311.131 82.3238 303.005 80.8186 295.933 77.507C289.012 74.346 283.746 69.8303 279.984 63.8093C276.222 57.7883 274.417 52.2321 274.417 44.1038V0L297.438 0V36.9156C297.438 44.2913 299.545 50.0112 303.607 54.2259C307.82 58.2901 313.388 60.3975 320.61 60.3975C327.682 60.3975 333.4 58.2901 337.462 54.2259C341.525 50.0112 343.631 44.2913 343.631 36.9156V0L366.653 0V44.1038C366.653 52.2321 364.847 57.7883 361.086 63.8093C357.474 69.8303 352.058 74.346 345.136 77.507C338.215 80.8186 329.939 82.3238 320.61 82.3238Z" fill="#D9FF80"/>
</svg>
