<svg width="233" height="1069" viewBox="0 0 233 1069" fill="none" xmlns="http://www.w3.org/2000/svg">
<path d="M179.231 94.373L232.885 94.373L232.885 0L232.885 254.378L179.231 254.378L179.231 160.005L5.92213 160.005L5.92213 94.373L179.231 94.373Z" fill="#D9FF80"/>
<path d="M85.5521 294.498L85.5521 420.615L37.0085 420.615L37.0085 294.498L85.5521 294.498ZM5.9236 503.405L5.9236 427.478L164.755 357.556L5.9236 287.635L5.9236 211.707L232.886 318.949L232.886 396.163L5.9236 503.405Z" fill="#D9FF80"/>
<path d="M232.886 520.96L232.886 696.837C232.886 712.28 230.757 725.149 226.073 736.302C221.389 747.455 214.576 756.034 205.634 762.04C197.117 768.045 186.898 771.048 174.975 771.048C163.477 771.048 153.258 767.187 145.167 759.895C136.651 752.174 131.115 741.449 128.134 728.151C127.283 747.455 121.747 762.469 111.101 773.193C100.456 784.346 85.978 789.923 68.5193 789.923C55.3188 789.923 44.2475 786.491 34.8794 779.627C25.5114 772.764 18.2724 762.898 13.5884 749.6C8.47853 736.731 5.9236 721.717 5.9236 704.129L5.9236 520.96L232.886 520.96ZM60.0029 698.124C60.0029 706.274 61.7062 712.708 65.1127 716.998C68.9451 721.717 73.6291 723.862 79.5906 723.862C85.978 723.862 90.662 721.717 94.0686 716.998C97.901 712.708 99.6042 706.274 99.6042 698.124L99.6042 586.592L60.0029 586.592L60.0029 698.124ZM147.722 682.681C147.722 689.544 149.425 695.121 152.406 699.41C155.387 703.271 159.645 705.416 164.755 705.416C169.439 705.416 172.845 703.271 175.4 699.41C177.955 695.121 179.233 689.544 179.233 682.681L179.233 586.592L147.722 586.592L147.722 682.681Z" fill="#D9FF80"/>
<path d="M5.03822e-06 936.84C5.42994e-06 909.815 4.25821 886.651 13.6263 866.49C22.5685 846.757 35.3431 831.743 52.3759 821.019C69.4087 810.295 85.1266 805.147 108.121 805.147L232.886 805.147L232.886 870.779L128.456 870.779C107.59 870.779 91.4092 876.785 79.4863 888.367C67.9891 900.378 62.0276 916.25 62.0276 936.84C62.0276 957.002 67.9891 973.303 79.4863 984.885C91.4092 996.467 107.59 1002.47 128.456 1002.47L232.886 1002.47L232.886 1068.1L108.121 1068.1C85.1266 1068.1 69.4087 1062.96 52.3759 1052.23C35.3431 1041.94 22.5685 1026.49 13.6263 1006.76C4.25821 987.03 4.65271e-06 963.436 5.03822e-06 936.84Z" fill="#D9FF80"/>
</svg>
